<?xml version="1.0" encoding="utf-8"?>
<!-- Generator: Adobe Illustrator 26.5.0, SVG Export Plug-In . SVG Version: 6.00 Build 0)  -->
<svg version="1.1" id="Layer_1" xmlns="http://www.w3.org/2000/svg" xmlns:xlink="http://www.w3.org/1999/xlink" x="0px" y="0px"
	 viewBox="0 0 143.7 44.3" style="enable-background:new 0 0 143.7 44.3;" xml:space="preserve">
<style type="text/css">
	.st0{fill:#8F409C;}
	.st1{fill:#FFFFFF;}
</style>
<g id="Logo" transform="translate(0 0)">
	<path id="Path_1" class="st0" d="M143.4,23.6c0,3.9-3.2,7-7.1,7c-3.9,0-7-3.2-7-7.1c0-3.9,3.2-7,7-7
		C140.2,16.5,143.4,19.7,143.4,23.6C143.4,23.6,143.4,23.6,143.4,23.6"/>
	<path id="Path_2" class="st1" d="M38.1,26.3c-6.4,0-7.4-5.6-7.4-11.2s1-11.2,7.4-11.2s7.3,5.6,7.3,11.2S44.6,26.3,38.1,26.3
		 M45.5,3.9C43.1,0.8,40.5,0,37.2,0C34.6-0.1,32,0.9,30,2.7c-2.9,3-3.6,7.6-3.6,12.5s0.7,9.5,3.6,12.4c1.9,1.8,4.5,2.7,7.2,2.7
		c3.2,0.2,6.4-1.3,8.3-3.9V31c0,5.1-2.4,9.2-8.1,9.2c-3.4,0-4.9-1-7.1-3L27.4,40c3.1,2.8,5.6,4,10,4c7.8,0,12.3-5.4,12.3-12.8V0.4
		h-4.3L45.5,3.9z M19.1,19.7c0,2.5-0.5,4.2-1.5,5.2c-1.9,1.8-4.1,2-6.6,2c-4.7,0-6.8-1.6-6.8-5.1s2.2-5.3,6.6-5.3h8.3L19.1,19.7z
		 M11.6,0C6.8,0,3.8,1,1.1,4.5l2.9,2.7c1.8-2.5,3.7-3.4,7.5-3.4c5.4,0,7.6,2.2,7.6,6.6v2.9h-8.9C3.6,13.2,0,16.6,0,21.9
		c-0.1,2.2,0.7,4.4,2.2,6.1c1.9,1.9,4.3,2.7,8.4,2.7c4,0,6.1-0.8,8.5-3.2v2.9h4.3V10C23.5,3.5,19.5,0,11.6,0 M118.7,13.5L114,13
		c-3.7-0.3-5.2-1.8-5.2-4.4c0-3,2.3-4.9,6.6-4.9c2.8-0.1,5.6,0.7,7.9,2.4l2.8-2.9c-2.7-2.2-6.4-3.2-10.6-3.2
		c-6.3,0-10.9,3.3-10.9,8.7c0,4.9,3.1,7.5,8.8,8l4.9,0.4c3.4,0.3,4.9,1.8,4.9,4.4c0,3.5-3,5.3-7.9,5.3c-3.7,0-6.9-1-9.2-3.5
		l-2.9,2.9c3.2,3.2,7.2,4.3,12.1,4.3c7.2,0,12-3.3,12-9.1C127.5,16,123.9,14,118.7,13.5"/>
	<path id="Path_3" class="st1" d="M97.3,19.7c0.1,1.4-0.2,2.7-0.7,4c-0.6,1.1-1.5,1.9-2.6,2.4c-1.3,0.5-2.6,0.8-4,0.8
		c-1.3,0.1-2.6,0-3.9-0.3c-1.8-0.3-3.3-1.7-3.7-3.6c-0.5-1.9,0.2-3.9,1.6-5.2c1.5-1,3.3-1.4,5.1-1.3h8
		C97.3,17.6,97.3,18.7,97.3,19.7 M58.2,8.2c1.6-3.7,5.8-5.4,9.6-4c1.8,0.6,3.2,1.9,4.1,3.6c0.7,1.7,1.1,3.5,1.1,5.4H57.3
		C57.3,11.5,57.6,9.8,58.2,8.2 M101.2,7c-0.5-2.1-1.8-4-3.7-5.1c-2.4-1.3-5.1-1.9-7.9-1.8c-3.3,0-6.7,0.5-9.2,3
		c-0.2,0.2-1.4,1.4-1.2,1.5l0.9,0.8c0.7,0.6,1.3,1.2,2,1.9c1.2-1.8,3.2-3,5.3-3.3c2.2-0.3,5-0.3,7,0.9c1.6,0.9,2.6,2.6,2.6,4.4
		c0,0.4,0.1,4,0.1,4h-8.2c-1.9-0.1-3.7,0.2-5.5,0.8c-2.6,0.9-4.5,3.1-6.3,5.2c-1.4,1.9-2.9,3.6-4.6,5.2c-1.1,1-2.4,1.7-3.9,2.1
		c-1.4,0.3-2.8,0.4-4.2,0.2c-2-0.2-3.8-1.1-5.1-2.7c-1.3-1.8-2.1-3.9-2.1-6.1c0-0.5-0.1-1-0.1-1.4h20v-1.9c0-4.4-1.1-9.1-4.6-12
		c-3.4-2.6-7.9-3.3-12-1.7c-4,1.5-6.4,5.4-7.2,9.5c-0.5,2.7-0.6,5.4-0.3,8.1c0.2,2.3,0.8,4.5,1.9,6.5c1.9,3.4,5.5,5.5,9.3,5.7
		c2.7,0.3,5.5-0.1,8-1.2c2.6-1.5,4.8-3.5,6.5-5.9c0.3,2,1.1,4.4,2.8,5.6c1.5,1,3.2,1.5,5,1.6c2.1,0.2,4.2,0.1,6.2-0.4
		c1.7-0.5,3.2-1.5,4.5-2.8v2.9h4.3V13.7C101.7,11.5,101.6,9.2,101.2,7"/>
</g>
</svg>
